# xmcd
#
# Track frame offsets:
# 150
# 16080
# 32432
# 54305
# 70562
# 89042
# 104512
# 117512
# 132455
# 149582
# 167055
# 183015
# 199045
# 216720
# 232712
# 251725
# 271693
#
# Disc length: 3840 seconds
#
#
# Revision: 2
# Processed by: cddbd v1.5.2PL0 Copyright (c) Steve Scherf et al.
# Submitted via: FreeRIP 2.40 
#
DISCID=f00efe11
DTITLE=Shania Twain - Come on Over
DYEAR=1999
DGENRE=Country
TTITLE0=You're Still The One (Album Version)
TTITLE1=When(2)
TTITLE2=From This Moment On (The I.V. Mix)
TTITLE3=Twain_Black Eyes, Blue Tears
TTITLE4=I Won't Leave You Lonely
TTITLE5=I'm Holdin' On To Love (To Save My Life)
TTITLE6=Come On Over
TTITLE7=You've Got A Way (Notting Hill Remix)
TTITLE8=Whatever You Do! Don't!
TTITLE9=Man! I Feel Like A Woman! (Album Version)
TTITLE10=Love Gets Me Every Time (Album Version)
TTITLE11=Don't Be Stupid (You Know I Love You)
TTITLE12=That Don't Impress Me Much (Dance Mix)
TTITLE13=Honey, I'm Home (Album Version)
TTITLE14=If You Wanna Touch Her, Ask!
TTITLE15=Rock This Country!
TTITLE16=Party for Two
EXTD=YEAR: 1999
EXTT0=
EXTT1=
EXTT2=
EXTT3=
EXTT4=
EXTT5=
EXTT6=
EXTT7=
EXTT8=
EXTT9=
EXTT10=
EXTT11=
EXTT12=
EXTT13=
EXTT14=
EXTT15=
EXTT16=
PLAYORDER=
